<svg width="57.15mm" height="38.1mm" viewBox="0 0 57.15 38.1" xmlns="http://www.w3.org/2000/svg"><g id="svgGroup" stroke-linecap="round" fill-rule="evenodd" font-size="9pt" stroke="#000" stroke-width="0.25mm" fill="none" style="stroke:#000;stroke-width:0.25mm;fill:none"><path d="M 0 38.1 L 57.15 38.1 L 57.15 0 L 0 0 L 0 38.1 Z M 22.075 2.525 L 35.075 2.525 A 0.5 0.5 0 0 1 35.575 3.025 L 35.575 16.025 A 0.5 0.5 0 0 1 35.075 16.525 L 22.075 16.525 A 0.5 0.5 0 0 1 21.575 16.025 L 21.575 3.025 A 0.5 0.5 0 0 1 22.075 2.525 Z M 3.025 21.575 L 16.025 21.575 A 0.5 0.5 0 0 1 16.525 22.075 L 16.525 35.075 A 0.5 0.5 0 0 1 16.025 35.575 L 3.025 35.575 A 0.5 0.5 0 0 1 2.525 35.075 L 2.525 22.075 A 0.5 0.5 0 0 1 3.025 21.575 Z M 22.075 21.575 L 35.075 21.575 A 0.5 0.5 0 0 1 35.575 22.075 L 35.575 35.075 A 0.5 0.5 0 0 1 35.075 35.575 L 22.075 35.575 A 0.5 0.5 0 0 1 21.575 35.075 L 21.575 22.075 A 0.5 0.5 0 0 1 22.075 21.575 Z M 41.125 21.575 L 54.125 21.575 A 0.5 0.5 0 0 1 54.625 22.075 L 54.625 35.075 A 0.5 0.5 0 0 1 54.125 35.575 L 41.125 35.575 A 0.5 0.5 0 0 1 40.625 35.075 L 40.625 22.075 A 0.5 0.5 0 0 1 41.125 21.575 Z M 3.025 2.525 L 16.025 2.525 A 0.5 0.5 0 0 1 16.525 3.025 L 16.525 16.025 A 0.5 0.5 0 0 1 16.025 16.525 L 3.025 16.525 A 0.5 0.5 0 0 1 2.525 16.025 L 2.525 3.025 A 0.5 0.5 0 0 1 3.025 2.525 Z M 41.125 2.525 L 54.125 2.525 A 0.5 0.5 0 0 1 54.625 3.025 L 54.625 16.025 A 0.5 0.5 0 0 1 54.125 16.525 L 41.125 16.525 A 0.5 0.5 0 0 1 40.625 16.025 L 40.625 3.025 A 0.5 0.5 0 0 1 41.125 2.525 Z" vector-effect="non-scaling-stroke"/></g></svg>